<?xml version="1.0" encoding="utf-8"?>
<!-- Generator: Adobe Illustrator 17.0.0, SVG Export Plug-In . SVG Version: 6.00 Build 0)  -->
<!DOCTYPE svg PUBLIC "-//W3C//DTD SVG 1.1//EN" "http://www.w3.org/Graphics/SVG/1.1/DTD/svg11.dtd">
<svg version="1.1" xmlns="http://www.w3.org/2000/svg" xmlns:xlink="http://www.w3.org/1999/xlink" x="0px" y="0px" width="880px"
	 height="440px" viewBox="0 0 880 440" enable-background="new 0 0 880 440" xml:space="preserve">
<g id="Layer_2">
	<rect x="0" y="0" fill="#F9F9FA" width="880" height="440"/>
</g>
<g id="Layer_4">
</g>
<g id="Layer_3">
	<g>
		<path fill="#231F20" d="M735.718,258.781h21.503v-58.735H780.5v-18.848h-68.061v18.848h23.279V258.781z M671.001,260.232
			c22.038,0,36.339-10.977,36.339-36.028v-43.005H685.5v43.678c0,10.856-5.646,15.945-14.289,15.945
			c-8.643,0-14.31-5.321-14.31-16.503v-43.121h-21.828v43.562C635.072,249.033,648.93,260.232,671.001,260.232 M586.536,240.948
			c-11.745,0-19.852-9.758-19.852-20.946v-0.215c0-11.208,7.875-20.74,19.631-20.74c11.85,0,19.936,9.752,19.936,20.955v0.221
			C606.251,231.4,598.376,240.948,586.536,240.948 M586.316,260.347c23.942,0,41.89-18.075,41.89-40.345v-0.215
			c0-22.281-17.727-40.134-41.669-40.134c-23.952,0-41.901,18.075-41.901,40.35v0.221
			C544.636,242.504,562.374,260.347,586.316,260.347 M475.796,258.781h21.492v-20.051l7.876-8.759l19.525,28.81h25.813
			l-30.366-44.209l29.367-33.373h-25.488l-26.728,31.481v-31.481h-21.492V258.781z M435.567,260.347
			c17.181,0,27.033-7.434,34.352-17.528l-16.182-11.514c-4.647,5.647-9.41,9.421-17.507,9.421c-10.862,0-18.517-9.095-18.517-20.724
			v-0.215c0-11.314,7.655-20.519,18.517-20.519c7.423,0,12.523,3.543,16.96,9.09l16.182-12.523
			c-6.876-9.537-17.075-16.182-32.921-16.182c-23.5,0-40.902,17.733-40.902,40.35v0.221
			C395.548,243.376,413.392,260.347,435.567,260.347 M328.16,258.781h62.951v-18.275h-41.669v-12.313h37.232v-16.955h-37.232v-11.75
			h41.112v-18.29H328.16V258.781z M247.135,258.781h21.502v-29.472h27.59v29.472h21.503v-77.583h-21.503v29.042h-27.59v-29.042
			h-21.502V258.781z M206.895,260.347c17.191,0,27.043-7.434,34.362-17.528l-16.182-11.514c-4.658,5.647-9.421,9.421-17.507,9.421
			c-10.862,0-18.517-9.095-18.517-20.724v-0.215c0-11.314,7.655-20.519,18.517-20.519c7.413,0,12.512,3.543,16.949,9.09
			l16.182-12.523c-6.866-9.537-17.066-16.182-32.911-16.182c-23.503,0-40.899,17.733-40.899,40.35v0.221
			C166.889,243.376,184.733,260.347,206.895,260.347 M100.5,258.781h61.405v-17.507h-32.038l13.301-9.305
			c11.534-8.312,17.97-14.747,17.97-27.154v-0.226c0-14.631-11.645-24.715-28.611-24.715c-15.073,0-23.269,5.873-31.586,16.629
			l14.521,12.076c6.093-6.972,10.204-9.973,15.409-9.973c5.205,0,8.648,3.002,8.648,7.87c0,4.658-2.776,8.307-9.978,13.969
			L100.5,242.599V258.781z"/>
	</g>
</g>
</svg>
