<?xml version="1.0" encoding="iso-8859-1"?>
<!-- Generator: Adobe Illustrator 19.0.0, SVG Export Plug-In . SVG Version: 6.00 Build 0)  -->
<svg xmlns="http://www.w3.org/2000/svg" xmlns:xlink="http://www.w3.org/1999/xlink" version="1.1" id="Layer_1" x="0px" y="0px" viewBox="0 0 511.992 511.992" style="enable-background:new 0 0 511.992 511.992;" xml:space="preserve" width="512px" height="512px">
<g>
	<g>
		<g>
			<path d="M287.992,298.666c4.354,0,10.667-8.313,10.667-21.333c0-13.021-6.313-21.333-10.667-21.333     c-4.354,0-10.667,8.313-10.667,21.333C277.325,290.354,283.638,298.666,287.992,298.666z" fill="#FFFFFF"/>
			<path d="M373.325,362.666c-4.354,0-10.667,8.313-10.667,21.333s6.313,21.333,10.667,21.333s10.667-8.313,10.667-21.333     S377.679,362.666,373.325,362.666z" fill="#FFFFFF"/>
			<path d="M501.325,277.333c5.896,0,10.667-4.771,10.667-10.667v-53.333c0-23.531-19.136-42.667-42.668-42.667h-80.282     c-3.063-6.785-5.046-13.863-5.046-21.333c0-19.313,10.719-37.167,27.98-46.594c2.51-1.375,4.375-3.708,5.146-6.469     c0.781-2.75,0.417-5.708-1-8.198l-25.99-45.396c-5.677-9.896-14.844-16.969-25.813-19.906     c-10.917-2.917-22.334-1.385-32.105,4.302L21.141,208.166c-20.188,11.75-27.136,37.854-15.5,58.167l26.876,46.979     c1.427,2.5,3.802,4.313,6.583,5.031c2.771,0.719,5.729,0.292,8.188-1.188c8.604-5.188,17.813-7.823,27.365-7.823     c23.285,0,43.625,15.34,50.55,37.53C118.297,368.323,98.382,384,74.658,384c-5.896,0-10.667,4.771-10.667,10.667V448     c0,23.531,19.136,42.667,42.668,42.667h362.665c23.532,0,42.668-19.135,42.668-42.667v-53.333     c0-5.896-4.771-10.667-10.667-10.667c-29.407,0-53.335-23.927-53.335-53.333C447.99,301.26,471.918,277.333,501.325,277.333z      M74.659,288c-9.76,0-19.5,2.021-28.656,5.917l-21.833-38.177c-5.844-10.188-2.375-23.26,7.708-29.135l32.698-19.035     c-0.26,1.904-0.583,3.79-0.583,5.764v53.333c0,5.896,4.771,10.667,10.667,10.667c19.626,0,36.622,10.777,45.883,26.609     C107.769,293.893,91.768,288,74.659,288z M342.95,45.51c4.823-2.813,10.49-3.594,15.844-2.135     c5.448,1.458,9.99,4.979,12.813,9.906l20.969,36.625c-18.677,14.01-29.917,35.938-29.917,59.427     c0,7.234,1.191,14.406,3.298,21.333H127.963L342.95,45.51z M213.325,472c0,5.896-4.771,10.667-10.667,10.667     c-5.896,0-10.667-4.771-10.667-10.667v-21.333c0-5.896,4.771-10.667,10.667-10.667c5.896,0,10.667,4.771,10.667,10.667V472z      M213.325,386.666c0,5.896-4.771,10.667-10.667,10.667c-5.896,0-10.667-4.771-10.667-10.667v-21.333     c0-5.896,4.771-10.667,10.667-10.667c5.896,0,10.667,4.771,10.667,10.667V386.666z M213.325,301.333     c0,5.896-4.771,10.667-10.667,10.667c-5.896,0-10.667-4.771-10.667-10.667V280c0-5.896,4.771-10.667,10.667-10.667     c5.896,0,10.667,4.771,10.667,10.667V301.333z M213.325,216c0,5.896-4.771,10.667-10.667,10.667     c-5.896,0-10.667-4.771-10.667-10.667v-24c0-5.896,4.771-10.667,10.667-10.667c5.896,0,10.667,4.771,10.667,10.667V216z      M287.992,234.666c17.948,0,32,18.74,32,42.667c0,23.927-14.052,42.667-32,42.667c-17.948,0-32-18.74-32-42.667     C255.992,253.406,270.044,234.666,287.992,234.666z M266.648,426.666c-2.229,0-4.469-0.698-6.385-2.135     c-4.719-3.531-5.677-10.219-2.135-14.927l128-170.667c3.531-4.708,10.229-5.646,14.927-2.135     c4.719,3.531,5.677,10.219,2.135,14.927l-128,170.667C273.096,425.198,269.898,426.666,266.648,426.666z M373.325,426.666     c-17.948,0-32-18.74-32-42.667s14.052-42.667,32-42.667s32,18.74,32,42.667S391.273,426.666,373.325,426.666z" fill="#FFFFFF"/>
		</g>
	</g>
</g>
<g>
</g>
<g>
</g>
<g>
</g>
<g>
</g>
<g>
</g>
<g>
</g>
<g>
</g>
<g>
</g>
<g>
</g>
<g>
</g>
<g>
</g>
<g>
</g>
<g>
</g>
<g>
</g>
<g>
</g>
</svg>
