<?xml version="1.0" encoding="utf-8"?>
<!-- Generator: Adobe Illustrator 16.0.0, SVG Export Plug-In . SVG Version: 6.00 Build 0)  -->
<!DOCTYPE svg PUBLIC "-//W3C//DTD SVG 1.1//EN" "http://www.w3.org/Graphics/SVG/1.1/DTD/svg11.dtd">
<svg version="1.1" id="Layer_1" xmlns="http://www.w3.org/2000/svg" xmlns:xlink="http://www.w3.org/1999/xlink" x="0px" y="0px"
	 width="257.66px" height="53.484px" viewBox="0 0 257.66 53.484" enable-background="new 0 0 257.66 53.484" xml:space="preserve">
<g>
	<path fill="#422E8D" d="M77.038,26.982v-0.068c0-5.102,3.945-9.387,9.354-9.387c2.824,0,4.762,0.918,6.293,2.244
		c0.271,0.238,0.646,0.748,0.646,1.43c0,1.055-0.852,1.869-1.906,1.869c-0.51,0-0.951-0.203-1.223-0.408
		c-1.055-0.883-2.211-1.529-3.844-1.529c-2.994,0-5.205,2.584-5.205,5.713v0.068c0,3.197,2.211,5.748,5.375,5.748
		c1.633,0,2.891-0.646,4.014-1.598c0.238-0.205,0.646-0.443,1.121-0.443c0.986,0,1.77,0.816,1.77,1.803
		c0,0.545-0.205,0.986-0.578,1.293c-1.6,1.531-3.537,2.551-6.531,2.551C80.983,36.268,77.038,32.084,77.038,26.982z"/>
	<path fill="#422E8D" d="M95.782,12.902c0-1.123,0.883-2.041,2.039-2.041c1.158,0,2.076,0.918,2.076,2.041v7.754
		c1.156-1.666,2.822-3.129,5.611-3.129c4.047,0,6.395,2.721,6.395,6.871v9.59c0,1.156-0.885,2.041-2.041,2.041
		s-2.074-0.885-2.074-2.041v-8.332c0-2.789-1.395-4.389-3.844-4.389c-2.381,0-4.047,1.668-4.047,4.457v8.264
		c0,1.156-0.918,2.041-2.076,2.041c-1.121,0-2.039-0.885-2.039-2.041V12.902z"/>
	<path fill="#422E8D" d="M123.435,36.268c-5.203,0-9.217-3.775-9.217-9.318v-0.068c0-5.137,3.639-9.354,8.775-9.354
		c5.713,0,8.537,4.693,8.537,8.844c0,1.156-0.885,1.973-1.939,1.973h-11.258c0.443,2.924,2.518,4.557,5.17,4.557
		c1.734,0,3.096-0.611,4.252-1.564c0.307-0.238,0.578-0.373,1.055-0.373c0.918,0,1.633,0.713,1.633,1.666
		c0,0.51-0.238,0.951-0.545,1.258C128.265,35.35,126.224,36.268,123.435,36.268z M127.517,25.621
		c-0.271-2.652-1.836-4.727-4.559-4.727c-2.516,0-4.285,1.939-4.658,4.727H127.517z"/>
	<path fill="#422E8D" d="M134.083,19.771c0-1.156,0.883-2.074,2.039-2.074c1.158,0,2.076,0.918,2.076,2.074v0.852
		c1.156-1.6,2.721-3.096,5.475-3.096c2.586,0,4.422,1.258,5.375,3.162c1.428-1.904,3.332-3.162,6.053-3.162
		c3.912,0,6.293,2.482,6.293,6.871v9.59c0,1.156-0.885,2.041-2.041,2.041s-2.074-0.885-2.074-2.041v-8.332
		c0-2.857-1.326-4.389-3.639-4.389c-2.246,0-3.844,1.566-3.844,4.457v8.264c0,1.156-0.918,2.041-2.041,2.041
		c-1.156,0-2.074-0.885-2.074-2.041v-8.367c0-2.787-1.361-4.354-3.641-4.354c-2.277,0-3.842,1.701-3.842,4.457v8.264
		c0,1.156-0.918,2.041-2.076,2.041c-1.121,0-2.039-0.885-2.039-2.041V19.771z"/>
	<path fill="#422E8D" d="M164.663,13.072c0-1.225,1.02-2.008,2.348-2.008c1.326,0,2.346,0.783,2.346,2.008v0.203
		c0,1.225-1.02,2.041-2.346,2.041c-1.328,0-2.348-0.816-2.348-2.041V13.072z M164.97,19.771c0-1.156,0.885-2.074,2.041-2.074
		s2.074,0.918,2.074,2.074v14.217c0,1.156-0.918,2.041-2.074,2.041c-1.123,0-2.041-0.885-2.041-2.041V19.771z"/>
	<path fill="#5B3996" d="M171.636,26.846v-0.066c0-5.205,3.98-9.49,9.559-9.49c2.754,0,4.693,0.748,6.223,2.041
		c0.342,0.271,0.816,0.885,0.816,1.768c0,1.293-1.055,2.314-2.346,2.314c-0.682,0-1.191-0.273-1.496-0.512
		c-0.92-0.713-1.871-1.156-3.232-1.156c-2.584,0-4.422,2.279-4.422,4.967v0.068c0,2.789,1.803,5.033,4.627,5.033
		c1.359,0,2.414-0.477,3.4-1.258c0.271-0.205,0.783-0.477,1.395-0.477c1.225,0,2.178,0.986,2.178,2.211
		c0,0.68-0.307,1.225-0.75,1.633c-1.529,1.395-3.469,2.346-6.461,2.346C175.649,36.268,171.636,32.051,171.636,26.846z"/>
	<path fill="#5B3996" d="M190.515,13.412c0-1.43,1.158-2.586,2.586-2.586s2.584,1.156,2.584,2.586v20.066
		c0,1.43-1.156,2.586-2.584,2.586s-2.586-1.156-2.586-2.586V13.412z"/>
	<path fill="#5B3996" d="M197.999,26.846v-0.066c0-5.238,4.217-9.49,9.896-9.49c5.646,0,9.83,4.184,9.83,9.422v0.068
		c0,5.236-4.219,9.488-9.898,9.488C202.183,36.268,197.999,32.084,197.999,26.846z M212.624,26.846v-0.066
		c0-2.688-1.939-5.035-4.797-5.035c-2.959,0-4.727,2.279-4.727,4.967v0.068c0,2.686,1.938,5.033,4.795,5.033
		C210.854,31.813,212.624,29.533,212.624,26.846z"/>
	<path fill="#5B3996" d="M236.366,33.479c0,1.43-1.156,2.586-2.584,2.586c-1.43,0-2.586-1.156-2.586-2.586v-0.203
		c-1.189,1.529-2.721,2.924-5.34,2.924c-3.912,0-6.189-2.584-6.189-6.768V20.01c0-1.428,1.156-2.584,2.584-2.584
		c1.43,0,2.586,1.156,2.586,2.584v7.789c0,2.449,1.156,3.707,3.129,3.707s3.23-1.258,3.23-3.707V20.01
		c0-1.428,1.156-2.584,2.586-2.584c1.428,0,2.584,1.156,2.584,2.584V33.479z"/>
	<path fill="#5B3996" d="M257.659,33.479c0,1.43-1.156,2.586-2.584,2.586c-1.43,0-2.586-1.156-2.586-2.586V33.24
		c-1.258,1.701-2.992,2.959-5.68,2.959c-4.252,0-8.299-3.332-8.299-9.42v-0.068c0-6.088,3.979-9.422,8.299-9.422
		c2.756,0,4.455,1.258,5.68,2.721v-6.598c0-1.43,1.156-2.586,2.586-2.586c1.428,0,2.584,1.156,2.584,2.586V33.479z M243.681,26.711
		v0.068c0,3.025,2.041,5.033,4.455,5.033c2.416,0,4.422-2.008,4.422-5.033v-0.068c0-3.027-2.006-5.035-4.422-5.035
		C245.722,21.676,243.681,23.648,243.681,26.711z"/>
	<g>
		<path fill="#5B3996" d="M79.017,48.654v-3.563h-0.256c-0.373,0-0.668-0.295-0.668-0.666c0-0.373,0.295-0.668,0.668-0.668h0.256
			v-1.154c0-0.424,0.348-0.77,0.781-0.77c0.426,0,0.771,0.346,0.771,0.77v1.154h1.217c0.371,0,0.68,0.295,0.68,0.668
			c0,0.371-0.309,0.666-0.68,0.666h-1.217v3.32c0,0.604,0.307,0.846,0.832,0.846c0.18,0,0.334-0.037,0.385-0.037
			c0.346,0,0.654,0.281,0.654,0.641c0,0.281-0.191,0.512-0.41,0.604c-0.334,0.115-0.654,0.178-1.064,0.178
			C79.825,50.643,79.017,50.143,79.017,48.654z"/>
		<path fill="#5B3996" d="M83.876,41.873c0-0.424,0.334-0.771,0.77-0.771c0.438,0,0.783,0.348,0.783,0.771v2.924
			c0.436-0.629,1.063-1.18,2.115-1.18c1.525,0,2.41,1.025,2.41,2.59v3.615c0,0.438-0.332,0.77-0.77,0.77
			c-0.436,0-0.781-0.332-0.781-0.77V46.68c0-1.051-0.525-1.652-1.449-1.652c-0.896,0-1.525,0.629-1.525,1.68v3.115
			c0,0.438-0.346,0.77-0.783,0.77c-0.422,0-0.77-0.332-0.77-0.77V41.873z"/>
		<path fill="#5B3996" d="M94.843,50.682c-1.963,0-3.477-1.424-3.477-3.514v-0.025c0-1.936,1.373-3.525,3.309-3.525
			c2.152,0,3.219,1.77,3.219,3.332c0,0.438-0.334,0.744-0.732,0.744h-4.242c0.166,1.104,0.947,1.719,1.947,1.719
			c0.654,0,1.168-0.23,1.604-0.59c0.115-0.09,0.219-0.141,0.398-0.141c0.346,0,0.615,0.27,0.615,0.627
			c0,0.193-0.09,0.361-0.205,0.475C96.663,50.336,95.894,50.682,94.843,50.682z M96.38,46.668c-0.102-1-0.691-1.781-1.719-1.781
			c-0.947,0-1.615,0.73-1.756,1.781H96.38z"/>
		<path fill="#5B3996" d="M103.151,44.463c0-0.436,0.332-0.783,0.77-0.783c0.436,0,0.783,0.348,0.783,0.783v0.691
			c0.357-0.846,1.023-1.486,1.705-1.486c0.486,0,0.768,0.32,0.768,0.77c0,0.41-0.27,0.68-0.615,0.742
			c-1.104,0.193-1.857,1.039-1.857,2.643v2c0,0.424-0.348,0.77-0.783,0.77c-0.424,0-0.77-0.332-0.77-0.77V44.463z"/>
		<path fill="#5B3996" d="M108.333,41.936c0-0.459,0.385-0.756,0.883-0.756c0.502,0,0.887,0.297,0.887,0.756v0.078
			c0,0.461-0.385,0.77-0.887,0.77c-0.498,0-0.883-0.309-0.883-0.77V41.936z M108.448,44.463c0-0.436,0.332-0.783,0.768-0.783
			c0.438,0,0.783,0.348,0.783,0.783v5.359c0,0.438-0.346,0.77-0.783,0.77c-0.422,0-0.768-0.332-0.768-0.77V44.463z"/>
		<path fill="#5B3996" d="M112.333,52.002c-0.27-0.102-0.436-0.32-0.436-0.613c0-0.348,0.295-0.643,0.654-0.643
			c0.115,0,0.205,0.025,0.281,0.064c0.615,0.346,1.297,0.537,2.078,0.537c1.385,0,2.141-0.717,2.141-2.076v-0.525
			c-0.563,0.73-1.27,1.244-2.385,1.244c-1.59,0-3.076-1.18-3.076-3.168v-0.025c0-2,1.5-3.18,3.076-3.18
			c1.141,0,1.848,0.525,2.373,1.154v-0.322c0-0.422,0.346-0.77,0.77-0.77c0.436,0,0.781,0.348,0.781,0.783v4.68
			c0,1.143-0.295,1.988-0.859,2.553c-0.615,0.615-1.563,0.91-2.783,0.91C114.001,52.605,113.153,52.4,112.333,52.002z
			 M117.065,46.809v-0.025c0-1.102-0.91-1.859-1.988-1.859c-1.076,0-1.924,0.744-1.924,1.859v0.025c0,1.104,0.859,1.859,1.924,1.859
			C116.155,48.668,117.065,47.912,117.065,46.809z"/>
		<path fill="#5B3996" d="M120.452,41.873c0-0.424,0.332-0.771,0.768-0.771c0.438,0,0.783,0.348,0.783,0.771v2.924
			c0.438-0.629,1.064-1.18,2.115-1.18c1.527,0,2.41,1.025,2.41,2.59v3.615c0,0.438-0.332,0.77-0.768,0.77s-0.783-0.332-0.783-0.77
			V46.68c0-1.051-0.525-1.652-1.449-1.652c-0.896,0-1.525,0.629-1.525,1.68v3.115c0,0.438-0.346,0.77-0.783,0.77
			c-0.422,0-0.768-0.332-0.768-0.77V41.873z"/>
		<path fill="#5B3996" d="M128.632,48.654v-3.563h-0.256c-0.371,0-0.666-0.295-0.666-0.666c0-0.373,0.295-0.668,0.666-0.668h0.256
			v-1.154c0-0.424,0.346-0.77,0.783-0.77c0.422,0,0.77,0.346,0.77,0.77v1.154h1.217c0.373,0,0.682,0.295,0.682,0.668
			c0,0.371-0.309,0.666-0.682,0.666h-1.217v3.32c0,0.604,0.307,0.846,0.832,0.846c0.182,0,0.334-0.037,0.385-0.037
			c0.348,0,0.654,0.281,0.654,0.641c0,0.281-0.191,0.512-0.408,0.604c-0.334,0.115-0.656,0.178-1.064,0.178
			C129.44,50.643,128.632,50.143,128.632,48.654z"/>
		<path fill="#5B3996" d="M137.251,41.873c0-0.424,0.332-0.771,0.77-0.771c0.436,0,0.781,0.348,0.781,0.771v2.924
			c0.438-0.629,1.064-1.18,2.117-1.18c1.525,0,2.41,1.025,2.41,2.59v3.615c0,0.438-0.334,0.77-0.77,0.77s-0.781-0.332-0.781-0.77
			V46.68c0-1.051-0.525-1.652-1.449-1.652c-0.898,0-1.527,0.629-1.527,1.68v3.115c0,0.438-0.346,0.77-0.781,0.77
			c-0.424,0-0.77-0.332-0.77-0.77V41.873z"/>
		<path fill="#5B3996" d="M144.739,47.182v-0.027c0-1.936,1.541-3.537,3.617-3.537s3.604,1.576,3.604,3.512v0.025
			c0,1.926-1.539,3.527-3.629,3.527C146.267,50.682,144.739,49.105,144.739,47.182z M150.409,47.182v-0.027
			c0-1.191-0.859-2.18-2.078-2.18c-1.244,0-2.039,0.977-2.039,2.154v0.025c0,1.18,0.857,2.168,2.064,2.168
			C149.612,49.322,150.409,48.348,150.409,47.182z"/>
		<path fill="#5B3996" d="M153.192,49.848c-0.168-0.09-0.297-0.281-0.297-0.539c0-0.346,0.27-0.627,0.631-0.627
			c0.127,0,0.242,0.037,0.332,0.09c0.654,0.436,1.332,0.654,1.949,0.654c0.666,0,1.051-0.283,1.051-0.73v-0.027
			c0-0.525-0.717-0.705-1.514-0.949c-1-0.281-2.115-0.691-2.115-1.986v-0.025c0-1.281,1.064-2.064,2.41-2.064
			c0.719,0,1.475,0.205,2.129,0.551c0.219,0.115,0.373,0.32,0.373,0.59c0,0.359-0.281,0.629-0.643,0.629
			c-0.127,0-0.205-0.025-0.307-0.076c-0.553-0.283-1.115-0.463-1.59-0.463c-0.604,0-0.949,0.281-0.949,0.668v0.023
			c0,0.502,0.73,0.707,1.525,0.963c0.986,0.307,2.104,0.756,2.104,1.975v0.025c0,1.424-1.104,2.129-2.514,2.129
			C154.911,50.656,153.974,50.387,153.192,49.848z"/>
		<path fill="#5B3996" d="M159.976,48.654v-3.563h-0.256c-0.373,0-0.668-0.295-0.668-0.666c0-0.373,0.295-0.668,0.668-0.668h0.256
			v-1.154c0-0.424,0.346-0.77,0.783-0.77c0.422,0,0.768,0.346,0.768,0.77v1.154h1.219c0.371,0,0.68,0.295,0.68,0.668
			c0,0.371-0.309,0.666-0.68,0.666h-1.219v3.32c0,0.604,0.309,0.846,0.834,0.846c0.18,0,0.332-0.037,0.385-0.037
			c0.346,0,0.654,0.281,0.654,0.641c0,0.281-0.193,0.512-0.41,0.604c-0.334,0.115-0.654,0.178-1.064,0.178
			C160.784,50.643,159.976,50.143,159.976,48.654z"/>
		<path fill="#5B3996" d="M164.81,41.936c0-0.459,0.385-0.756,0.885-0.756s0.885,0.297,0.885,0.756v0.078
			c0,0.461-0.385,0.77-0.885,0.77s-0.885-0.309-0.885-0.77V41.936z M164.925,44.463c0-0.436,0.334-0.783,0.77-0.783
			s0.783,0.348,0.783,0.783v5.359c0,0.438-0.348,0.77-0.783,0.77c-0.424,0-0.77-0.332-0.77-0.77V44.463z"/>
		<path fill="#5B3996" d="M168.415,44.463c0-0.436,0.332-0.783,0.768-0.783s0.783,0.348,0.783,0.783v0.334
			c0.436-0.629,1.064-1.18,2.115-1.18c1.525,0,2.41,1.025,2.41,2.59v3.615c0,0.438-0.332,0.77-0.77,0.77
			c-0.436,0-0.781-0.332-0.781-0.77V46.68c0-1.051-0.527-1.652-1.449-1.652c-0.898,0-1.525,0.629-1.525,1.68v3.115
			c0,0.438-0.348,0.77-0.783,0.77c-0.422,0-0.768-0.332-0.768-0.77V44.463z"/>
		<path fill="#5B3996" d="M176.671,52.002c-0.268-0.102-0.436-0.32-0.436-0.613c0-0.348,0.297-0.643,0.654-0.643
			c0.115,0,0.205,0.025,0.283,0.064c0.615,0.346,1.293,0.537,2.076,0.537c1.385,0,2.143-0.717,2.143-2.076v-0.525
			c-0.566,0.73-1.27,1.244-2.387,1.244c-1.59,0-3.076-1.18-3.076-3.168v-0.025c0-2,1.5-3.18,3.076-3.18
			c1.143,0,1.848,0.525,2.373,1.154v-0.322c0-0.422,0.348-0.77,0.77-0.77c0.436,0,0.781,0.348,0.781,0.783v4.68
			c0,1.143-0.293,1.988-0.859,2.553c-0.613,0.615-1.564,0.91-2.781,0.91C178.339,52.605,177.493,52.4,176.671,52.002z
			 M181.403,46.809v-0.025c0-1.102-0.91-1.859-1.986-1.859c-1.078,0-1.924,0.744-1.924,1.859v0.025c0,1.104,0.859,1.859,1.924,1.859
			C180.493,48.668,181.403,47.912,181.403,46.809z"/>
		<path fill="#5B3996" d="M188.894,45.092h-0.27c-0.359,0-0.652-0.283-0.652-0.643c0-0.357,0.293-0.654,0.652-0.654h0.27v-0.498
			c0-0.746,0.193-1.309,0.551-1.668c0.359-0.359,0.859-0.539,1.527-0.539c0.307,0,0.564,0.025,0.781,0.064
			c0.283,0.039,0.539,0.295,0.539,0.643c0,0.357-0.297,0.652-0.654,0.641c-0.09-0.014-0.219-0.025-0.32-0.025
			c-0.59,0-0.898,0.32-0.898,1.025v0.371h1.205c0.371,0,0.654,0.283,0.654,0.641c0,0.359-0.295,0.643-0.654,0.643h-1.18v4.73
			c0,0.424-0.346,0.77-0.781,0.77c-0.424,0-0.77-0.346-0.77-0.77V45.092z"/>
		<path fill="#5B3996" d="M192.778,47.182v-0.027c0-1.936,1.539-3.537,3.617-3.537s3.604,1.576,3.604,3.512v0.025
			c0,1.926-1.539,3.527-3.629,3.527C194.304,50.682,192.778,49.105,192.778,47.182z M198.446,47.182v-0.027
			c0-1.191-0.859-2.18-2.076-2.18c-1.244,0-2.039,0.977-2.039,2.154v0.025c0,1.18,0.859,2.168,2.064,2.168
			C197.651,49.322,198.446,48.348,198.446,47.182z"/>
		<path fill="#5B3996" d="M201.487,44.463c0-0.436,0.334-0.783,0.771-0.783c0.434,0,0.781,0.348,0.781,0.783v0.691
			c0.357-0.846,1.025-1.486,1.705-1.486c0.486,0,0.77,0.32,0.77,0.77c0,0.41-0.27,0.68-0.617,0.742
			c-1.102,0.193-1.857,1.039-1.857,2.643v2c0,0.424-0.348,0.77-0.781,0.77c-0.426,0-0.771-0.332-0.771-0.77V44.463z"/>
		<path fill="#5B3996" d="M206.694,44.463c0-0.436,0.334-0.783,0.77-0.783s0.783,0.348,0.783,0.783v0.32
			c0.436-0.602,1.025-1.166,2.063-1.166c0.975,0,1.668,0.475,2.025,1.191c0.539-0.717,1.258-1.191,2.283-1.191
			c1.475,0,2.371,0.936,2.371,2.59v3.615c0,0.438-0.332,0.77-0.768,0.77c-0.438,0-0.783-0.332-0.783-0.77V46.68
			c0-1.074-0.5-1.652-1.373-1.652c-0.844,0-1.447,0.59-1.447,1.68v3.115c0,0.438-0.346,0.77-0.768,0.77
			c-0.438,0-0.783-0.332-0.783-0.77v-3.154c0-1.051-0.514-1.641-1.371-1.641c-0.859,0-1.449,0.641-1.449,1.68v3.115
			c0,0.438-0.348,0.77-0.783,0.77c-0.424,0-0.77-0.332-0.77-0.77V44.463z"/>
		<path fill="#5B3996" d="M224.8,49.822c0,0.424-0.346,0.77-0.783,0.77c-0.422,0-0.781-0.332-0.781-0.77v-0.346
			c-0.436,0.641-1.064,1.191-2.117,1.191c-1.523,0-2.41-1.025-2.41-2.604v-3.602c0-0.436,0.348-0.783,0.77-0.783
			c0.438,0,0.785,0.348,0.785,0.783v3.141c0,1.051,0.525,1.641,1.447,1.641c0.898,0,1.525-0.613,1.525-1.664v-3.117
			c0-0.436,0.346-0.783,0.781-0.783c0.424,0,0.783,0.348,0.783,0.783V49.822z"/>
		<path fill="#5B3996" d="M226.737,41.873c0-0.424,0.332-0.771,0.77-0.771c0.436,0,0.783,0.348,0.783,0.771v7.949
			c0,0.438-0.348,0.77-0.783,0.77c-0.424,0-0.77-0.332-0.77-0.77V41.873z"/>
		<path fill="#5B3996" d="M229.776,48.578v-0.025c0-1.461,1.143-2.18,2.797-2.18c0.756,0,1.295,0.115,1.82,0.283v-0.168
			c0-0.961-0.59-1.473-1.68-1.473c-0.592,0-1.078,0.102-1.502,0.27c-0.088,0.023-0.166,0.037-0.242,0.037
			c-0.359,0-0.654-0.283-0.654-0.641c0-0.283,0.191-0.525,0.424-0.617c0.641-0.242,1.295-0.396,2.178-0.396
			c1.014,0,1.77,0.27,2.244,0.758c0.502,0.484,0.732,1.203,0.732,2.088v3.334c0,0.424-0.334,0.744-0.756,0.744
			c-0.451,0-0.758-0.307-0.758-0.652v-0.258c-0.461,0.551-1.166,0.986-2.205,0.986C230.905,50.668,229.776,49.939,229.776,48.578z
			 M234.419,48.092v-0.461c-0.396-0.156-0.922-0.27-1.539-0.27c-1,0-1.59,0.422-1.59,1.129v0.025c0,0.652,0.576,1.025,1.32,1.025
			C233.636,49.541,234.419,48.951,234.419,48.092z"/>
	</g>
	
		<linearGradient id="SVGID_1_" gradientUnits="userSpaceOnUse" x1="-7.9102" y1="17.041" x2="41.3246" y2="34.961" gradientTransform="matrix(0 -1 1 0 6.6836 43.1387)">
		<stop  offset="0" style="stop-color:#382265"/>
		<stop  offset="0.4673" style="stop-color:#422E8D"/>
		<stop  offset="1" style="stop-color:#5B3996"/>
	</linearGradient>
	<path fill="url(#SVGID_1_)" d="M18.38,12.029c-0.971-0.152-2.012-0.234-3.145-0.234c-8.805,0-15.102,6.697-15.23,14.885h-0.006
		c0,0.021,0.002,0.041,0.004,0.063c-0.002,0.021-0.004,0.041-0.004,0.063h0.006c0.129,8.188,6.426,14.885,15.23,14.885
		c1.133,0,2.174-0.082,3.145-0.236c1.361,6.832,7.166,12.031,14.922,12.031c4.395,0,7.484-1.193,9.926-3.256
		c0.543-0.432,1.303-1.408,1.303-2.82c0-2.061-1.682-3.688-3.744-3.688c-1.086,0-1.898,0.432-2.385,0.813
		c-1.467,1.139-2.984,1.844-5.154,1.844c-4.098,0-7.014-3.59-7.049-7.84c0.035-4.25,2.951-7.84,7.049-7.84
		c1.496,0,2.68,0.342,3.754,0.924c1.996,5.838,7.393,10.068,14.387,10.068c4.393,0,7.484-1.193,9.926-3.256
		c0.545-0.432,1.303-1.408,1.303-2.82c0-2.061-1.684-3.688-3.744-3.688c-1.086,0-1.898,0.432-2.385,0.811
		c-1.467,1.141-2.984,1.846-5.154,1.846c-4.098,0-7.014-3.59-7.049-7.84c0.035-4.25,2.951-7.842,7.049-7.842
		c2.17,0,3.688,0.705,5.154,1.846c0.486,0.379,1.299,0.813,2.385,0.813c2.061,0,3.744-1.627,3.744-3.688
		c0-1.412-0.758-2.388-1.303-2.821c-2.441-2.062-5.533-3.255-9.926-3.255c-6.994,0-12.391,4.23-14.387,10.068
		c-1.074,0.582-2.258,0.924-3.754,0.924c-4.098,0-7.014-3.59-7.049-7.84c0.035-4.25,2.951-7.841,7.049-7.841
		c2.17,0,3.688,0.704,5.154,1.845c0.486,0.38,1.299,0.813,2.385,0.813c2.063,0,3.744-1.627,3.744-3.688
		c0-1.411-0.76-2.387-1.303-2.821C40.786,1.193,37.696,0,33.302,0C25.546,0,19.743,5.198,18.38,12.029z M23.837,26.742
		c-2.277,1.766-3.984,4.164-4.926,6.93c-1.066,0.574-2.244,0.91-3.73,0.91c-4.098,0-7.012-3.59-7.049-7.84
		c0.037-4.25,2.951-7.842,7.049-7.842c1.486,0,2.664,0.338,3.73,0.91C19.853,22.576,21.558,24.977,23.837,26.742z"/>
</g>
</svg>
