<?xml version="1.0" encoding="utf-8"?>
<!-- Generator: Adobe Illustrator 21.0.0, SVG Export Plug-In . SVG Version: 6.00 Build 0)  -->
<svg version="1.1" id="Layer_1" xmlns="http://www.w3.org/2000/svg" xmlns:xlink="http://www.w3.org/1999/xlink" x="0px" y="0px"
	 viewBox="0 0 75 75" style="enable-background:new 0 0 75 75;" xml:space="preserve">
<style type="text/css">
	.st0{fill:#3AB54A;}
	.st1{fill:#FFFFFF;}
	.st2{fill:#FAFFFA;}
	.st3{fill:#444446;}
</style>
<g>
	<path class="st0" d="M61.2,30.9c-0.8-0.8-1.8-1.2-2.9-1.2h-1.4v-8.3c0-5.3-1.9-9.9-5.7-13.7C47.4,3.9,42.8,2,37.5,2
		c-5.3,0-9.9,1.9-13.7,5.7c-3.8,3.8-5.7,8.4-5.7,13.7v8.3h-1.4c-1.2,0-2.1,0.4-2.9,1.2c-0.8,0.8-1.2,1.8-1.2,2.9v24.9
		c0,1.2,0.4,2.1,1.2,2.9c0.8,0.8,1.8,1.2,2.9,1.2h41.5c1.2,0,2.1-0.4,2.9-1.2c0.8-0.8,1.2-1.8,1.2-2.9V33.8
		C62.4,32.7,62,31.7,61.2,30.9z M48.6,29.7H26.4v-8.3c0-3.1,1.1-5.7,3.2-7.8c2.2-2.2,4.8-3.2,7.8-3.2c3.1,0,5.7,1.1,7.8,3.2
		c2.2,2.2,3.2,4.8,3.2,7.8V29.7z"/>
	<g>
		<path class="st1" d="M31.3,42.9c0-0.2-0.1-0.4-0.3-0.5c-0.2-0.1-0.5-0.3-1-0.4c-0.7-0.1-1.2-0.3-1.5-0.6s-0.5-0.6-0.5-1
			c0-0.5,0.2-0.8,0.6-1.2c0.4-0.3,0.9-0.5,1.5-0.5c0.6,0,1.2,0.2,1.5,0.5c0.4,0.3,0.6,0.7,0.5,1.2l0,0h-1c0-0.2-0.1-0.5-0.3-0.7
			c-0.2-0.2-0.5-0.3-0.8-0.3c-0.4,0-0.6,0.1-0.8,0.2c-0.2,0.2-0.3,0.3-0.3,0.6c0,0.2,0.1,0.4,0.2,0.5c0.2,0.1,0.5,0.2,0.9,0.3
			c0.7,0.2,1.2,0.4,1.6,0.6c0.3,0.3,0.5,0.6,0.5,1c0,0.5-0.2,0.9-0.6,1.2c-0.4,0.3-0.9,0.5-1.6,0.5c-0.7,0-1.3-0.2-1.7-0.5
			c-0.4-0.4-0.6-0.8-0.6-1.3l0,0h1c0,0.4,0.1,0.6,0.4,0.8c0.2,0.2,0.5,0.2,0.9,0.2c0.4,0,0.6-0.1,0.8-0.2
			C31.2,43.3,31.3,43.1,31.3,42.9z"/>
		<path class="st1" d="M37,44.3c0-0.2-0.1-0.3-0.1-0.4c0-0.1,0-0.3,0-0.4c-0.2,0.3-0.4,0.5-0.7,0.7c-0.3,0.2-0.6,0.3-1,0.3
			c-0.6,0-1-0.1-1.3-0.4c-0.3-0.3-0.5-0.7-0.5-1.2c0-0.5,0.2-0.9,0.6-1.2s1-0.4,1.7-0.4h1.1v-0.5c0-0.3-0.1-0.6-0.3-0.8
			s-0.5-0.3-0.8-0.3c-0.3,0-0.6,0.1-0.8,0.2c-0.2,0.2-0.3,0.4-0.3,0.6h-1l0,0c0-0.4,0.2-0.8,0.6-1.1c0.4-0.3,0.9-0.5,1.6-0.5
			c0.6,0,1.1,0.2,1.5,0.5s0.6,0.8,0.6,1.4v2.7c0,0.2,0,0.4,0,0.6s0.1,0.4,0.1,0.5H37z M35.3,43.6c0.4,0,0.7-0.1,1-0.3
			s0.5-0.4,0.6-0.6v-0.9h-1.1c-0.4,0-0.7,0.1-1,0.3c-0.2,0.2-0.4,0.4-0.4,0.7c0,0.2,0.1,0.4,0.2,0.6C34.8,43.5,35,43.6,35.3,43.6z"
			/>
		<path class="st1" d="M39.8,44.3v-4.8h-0.9v-0.7h0.9v-0.7c0-0.6,0.2-1,0.5-1.4c0.3-0.3,0.7-0.5,1.3-0.5c0.1,0,0.2,0,0.4,0
			c0.1,0,0.2,0,0.4,0.1l-0.1,0.8c-0.1,0-0.1,0-0.2,0c-0.1,0-0.2,0-0.3,0c-0.3,0-0.5,0.1-0.7,0.3c-0.1,0.2-0.2,0.4-0.2,0.8v0.7h1.2
			v0.7h-1.2v4.8H39.8z"/>
		<path class="st1" d="M45.1,44.4c-0.8,0-1.4-0.3-1.8-0.8c-0.5-0.5-0.7-1.2-0.7-2v-0.2c0-0.8,0.2-1.4,0.7-2s1-0.8,1.7-0.8
			c0.7,0,1.3,0.2,1.7,0.7s0.6,1.1,0.6,1.8v0.6h-3.6l0,0c0,0.5,0.1,1,0.4,1.3c0.3,0.3,0.6,0.5,1.1,0.5c0.3,0,0.6,0,0.9-0.1
			s0.5-0.2,0.7-0.4l0.4,0.7c-0.2,0.2-0.5,0.4-0.8,0.5C46,44.4,45.6,44.4,45.1,44.4z M45,39.5c-0.3,0-0.6,0.1-0.9,0.4
			c-0.2,0.3-0.4,0.6-0.4,1.1l0,0h2.6v-0.1c0-0.4-0.1-0.7-0.3-1S45.4,39.5,45,39.5z"/>
	</g>
	<g>
		<path class="st2" d="M25.3,52.1c0-0.2-0.1-0.3-0.2-0.4c-0.2-0.1-0.5-0.2-0.9-0.3c-0.7-0.1-1.2-0.3-1.5-0.6
			c-0.3-0.3-0.5-0.6-0.5-1.1c0-0.5,0.2-0.9,0.6-1.2c0.4-0.3,0.9-0.5,1.6-0.5c0.7,0,1.3,0.2,1.7,0.5c0.4,0.3,0.6,0.8,0.6,1.3l0,0
			h-1.4c0-0.2-0.1-0.4-0.2-0.5c-0.1-0.1-0.3-0.2-0.6-0.2c-0.2,0-0.4,0.1-0.6,0.2s-0.2,0.3-0.2,0.4c0,0.2,0.1,0.3,0.2,0.4
			c0.1,0.1,0.4,0.2,0.9,0.3c0.7,0.1,1.2,0.3,1.5,0.6c0.3,0.3,0.5,0.6,0.5,1.1c0,0.5-0.2,0.9-0.6,1.2c-0.4,0.3-1,0.5-1.7,0.5
			c-0.7,0-1.3-0.2-1.8-0.6c-0.4-0.4-0.6-0.8-0.6-1.3l0,0h1.4c0,0.3,0.1,0.5,0.3,0.6c0.2,0.1,0.4,0.2,0.7,0.2c0.3,0,0.5-0.1,0.6-0.2
			C25.2,52.4,25.3,52.3,25.3,52.1z"/>
		<path class="st2" d="M30.2,53.7c-0.8,0-1.4-0.3-1.9-0.8s-0.7-1.2-0.7-2v-0.2c0-0.8,0.2-1.5,0.7-2c0.5-0.5,1.1-0.8,1.8-0.8
			c0.7,0,1.3,0.2,1.7,0.7c0.4,0.5,0.6,1.1,0.6,1.8v0.8h-3.3l0,0c0,0.4,0.1,0.7,0.4,0.9c0.2,0.2,0.5,0.4,0.9,0.4c0.3,0,0.6,0,0.8-0.1
			s0.5-0.2,0.7-0.3l0.4,0.9c-0.2,0.2-0.5,0.3-0.9,0.5C31,53.7,30.6,53.7,30.2,53.7z M30,49.1c-0.3,0-0.5,0.1-0.7,0.3
			c-0.2,0.2-0.3,0.5-0.3,0.8l0,0h1.8v-0.1c0-0.3-0.1-0.6-0.2-0.8C30.6,49.2,30.3,49.1,30,49.1z"/>
		<path class="st2" d="M35.6,52.6c0.3,0,0.5-0.1,0.6-0.2c0.2-0.2,0.2-0.4,0.2-0.6h1.4l0,0c0,0.6-0.2,1-0.6,1.4
			c-0.4,0.4-1,0.6-1.6,0.6c-0.8,0-1.5-0.3-1.9-0.8c-0.4-0.5-0.7-1.2-0.7-2v-0.2c0-0.8,0.2-1.5,0.7-2c0.4-0.5,1.1-0.8,1.9-0.8
			c0.7,0,1.2,0.2,1.7,0.6c0.4,0.4,0.6,0.9,0.6,1.5l0,0h-1.4c0-0.3-0.1-0.5-0.2-0.7c-0.2-0.2-0.4-0.3-0.7-0.3c-0.4,0-0.7,0.2-0.8,0.5
			c-0.2,0.3-0.2,0.7-0.2,1.2v0.2c0,0.5,0.1,0.9,0.2,1.2C34.9,52.4,35.2,52.6,35.6,52.6z"/>
		<path class="st2" d="M42.1,52.8c-0.2,0.3-0.4,0.5-0.7,0.7c-0.3,0.2-0.6,0.2-0.9,0.2c-0.6,0-1-0.2-1.4-0.6c-0.3-0.4-0.5-1-0.5-1.7
			v-3.3h1.5v3.4c0,0.4,0.1,0.7,0.2,0.9c0.1,0.2,0.3,0.3,0.6,0.3c0.2,0,0.4,0,0.6-0.1c0.2-0.1,0.3-0.2,0.4-0.3v-4h1.5v5.5h-1.3
			L42.1,52.8z"/>
		<path class="st2" d="M47.5,49.4l-0.5,0c-0.2,0-0.4,0-0.5,0.1c-0.1,0.1-0.3,0.2-0.3,0.4v3.7h-1.5v-5.5H46l0.1,0.8
			c0.1-0.3,0.3-0.5,0.5-0.7C46.8,48,47,48,47.3,48c0.1,0,0.1,0,0.2,0c0.1,0,0.1,0,0.2,0L47.5,49.4z"/>
		<path class="st2" d="M50.8,53.7c-0.8,0-1.4-0.3-1.9-0.8s-0.7-1.2-0.7-2v-0.2c0-0.8,0.2-1.5,0.7-2c0.5-0.5,1.1-0.8,1.8-0.8
			c0.7,0,1.3,0.2,1.7,0.7s0.6,1.1,0.6,1.8v0.8h-3.3l0,0c0,0.4,0.1,0.7,0.4,0.9c0.2,0.2,0.5,0.4,0.9,0.4c0.3,0,0.6,0,0.8-0.1
			s0.5-0.2,0.7-0.3l0.4,0.9c-0.2,0.2-0.5,0.3-0.9,0.5S51.2,53.7,50.8,53.7z M50.6,49.1c-0.3,0-0.5,0.1-0.7,0.3
			c-0.2,0.2-0.3,0.5-0.3,0.8l0,0h1.8v-0.1c0-0.3-0.1-0.6-0.2-0.8C51.1,49.2,50.9,49.1,50.6,49.1z"/>
	</g>
	<g>
		<path class="st3" d="M21.5,67.3c0.2-0.3,0.4-0.5,0.6-0.6s0.5-0.2,0.8-0.2c0.6,0,1,0.2,1.4,0.6c0.3,0.4,0.5,1,0.5,1.8v3.3h-1.5
			v-3.3c0-0.4-0.1-0.7-0.2-0.9c-0.2-0.2-0.4-0.3-0.7-0.3c-0.2,0-0.4,0-0.5,0.1c-0.2,0.1-0.3,0.2-0.4,0.3v4.1H20v-8h1.5V67.3z"/>
		<path class="st3" d="M27.8,65.3v1.4h0.9v1.1h-0.9v2.8c0,0.2,0,0.4,0.1,0.5c0.1,0.1,0.2,0.1,0.4,0.1c0.1,0,0.1,0,0.2,0s0.1,0,0.2,0
			l0.1,1.1c-0.2,0.1-0.3,0.1-0.4,0.1s-0.3,0-0.5,0c-0.5,0-0.9-0.1-1.2-0.4c-0.3-0.3-0.4-0.7-0.4-1.3v-2.8h-0.8v-1.1h0.8v-1.4H27.8z"
			/>
		<path class="st3" d="M31.4,65.3v1.4h0.9v1.1h-0.9v2.8c0,0.2,0,0.4,0.1,0.5c0.1,0.1,0.2,0.1,0.4,0.1c0.1,0,0.1,0,0.2,0
			c0.1,0,0.1,0,0.2,0l0.1,1.1c-0.2,0.1-0.3,0.1-0.4,0.1s-0.3,0-0.5,0c-0.5,0-0.9-0.1-1.2-0.4c-0.3-0.3-0.4-0.7-0.4-1.3v-2.8h-0.8
			v-1.1h0.8v-1.4H31.4z"/>
		<path class="st3" d="M38.3,69.5c0,0.8-0.2,1.5-0.6,2c-0.4,0.5-0.9,0.7-1.6,0.7c-0.3,0-0.5-0.1-0.8-0.2s-0.4-0.3-0.6-0.5v2.7h-1.5
			v-7.7h1.3l0.1,0.7c0.2-0.2,0.4-0.4,0.6-0.6c0.2-0.1,0.5-0.2,0.8-0.2c0.7,0,1.2,0.3,1.6,0.8c0.4,0.5,0.6,1.2,0.6,2.1V69.5z
			 M36.8,69.4c0-0.5-0.1-0.9-0.3-1.3c-0.2-0.3-0.4-0.5-0.8-0.5c-0.2,0-0.4,0-0.6,0.1c-0.2,0.1-0.3,0.2-0.4,0.4v2.4
			c0.1,0.2,0.2,0.3,0.4,0.4c0.2,0.1,0.4,0.1,0.6,0.1c0.4,0,0.6-0.1,0.8-0.4s0.3-0.7,0.3-1.2V69.4z"/>
		<path class="st0" d="M42.2,70.6c0-0.2-0.1-0.3-0.2-0.4c-0.2-0.1-0.5-0.2-0.9-0.3c-0.7-0.1-1.2-0.3-1.5-0.6
			c-0.3-0.3-0.5-0.6-0.5-1.1c0-0.5,0.2-0.9,0.6-1.2s0.9-0.5,1.6-0.5c0.7,0,1.3,0.2,1.7,0.5c0.4,0.3,0.6,0.8,0.6,1.3l0,0h-1.4
			c0-0.2-0.1-0.4-0.2-0.5c-0.1-0.1-0.3-0.2-0.6-0.2c-0.2,0-0.4,0.1-0.6,0.2c-0.1,0.1-0.2,0.3-0.2,0.4c0,0.2,0.1,0.3,0.2,0.4
			c0.1,0.1,0.4,0.2,0.9,0.3c0.7,0.1,1.2,0.3,1.5,0.6c0.3,0.3,0.5,0.6,0.5,1.1c0,0.5-0.2,0.9-0.6,1.2c-0.4,0.3-1,0.5-1.7,0.5
			c-0.7,0-1.3-0.2-1.8-0.6c-0.4-0.4-0.6-0.8-0.6-1.3l0,0h1.4c0,0.3,0.1,0.5,0.3,0.6c0.2,0.1,0.4,0.2,0.7,0.2c0.3,0,0.5-0.1,0.6-0.2
			S42.2,70.8,42.2,70.6z"/>
		<path class="st3" d="M46.3,67.7h-1.5v-1.3h1.5V67.7z M46.3,72.2h-1.5v-1.3h1.5V72.2z"/>
		<path class="st3" d="M48.4,72.8H47l2.7-8.1h1.5L48.4,72.8z"/>
		<path class="st3" d="M52.7,72.8h-1.5l2.7-8.1h1.5L52.7,72.8z"/>
	</g>
</g>
</svg>
